#tb 0: 1/50
#media_type 0: video
#codec_id 0: rawvideo
#dimensions 0: 352x144
#sar 0: 0/1
0,          0,          0,        1,    76032, 0x99276ab9
0,          1,          1,        1,    76032, 0x0b071f36
0,          2,          2,        1,    76032, 0x8b03b0e8
0,          3,          3,        1,    76032, 0x3e10b45a
0,          4,          4,        1,    76032, 0x67a27817
0,          5,          5,        1,    76032, 0xb3537e33
0,          6,          6,        1,    76032, 0xc4e78689
0,          7,          7,        1,    76032, 0x5f11fa18
0,          8,          8,        1,    76032, 0x7867f720
0,          9,          9,        1,    76032, 0xb584bf23
0,         10,         10,        1,    76032, 0x7c4ae6cf
0,         11,         11,        1,    76032, 0x4b43c208
0,         12,         12,        1,    76032, 0x974d3882
0,         13,         13,        1,    76032, 0xfb0543a1
0,         14,         14,        1,    76032, 0x91da8418
0,         15,         15,        1,    76032, 0x45260794
0,         16,         16,        1,    76032, 0xe65397d0
0,         17,         17,        1,    76032, 0xfa09e847
0,         18,         18,        1,    76032, 0x3adcfa2c
0,         19,         19,        1,    76032, 0xa0103eda
0,         20,         20,        1,    76032, 0xee821b94
0,         21,         21,        1,    76032, 0xb8cf2bcc
0,         22,         22,        1,    76032, 0x6e50db83
0,         23,         23,        1,    76032, 0x2cd12152
0,         24,         24,        1,    76032, 0x482961d0
0,         25,         25,        1,    76032, 0x9a304b91
0,         26,         26,        1,    76032, 0x2591f07b
0,         27,         27,        1,    76032, 0x1410b199
0,         28,         28,        1,    76032, 0x1fc9c234
0,         29,         29,        1,    76032, 0x4a8dcb9a
0,         30,         30,        1,    76032, 0xda4b81c7
0,         31,         31,        1,    76032, 0x45ef8d2f
0,         32,         32,        1,    76032, 0x07fda976
0,         33,         33,        1,    76032, 0x19cfa493
0,         34,         34,        1,    76032, 0xdb453b41
0,         35,         35,        1,    76032, 0xeebefd78
0,         36,         36,        1,    76032, 0xdb7830bf
0,         37,         37,        1,    76032, 0x1bc13a0d
0,         38,         38,        1,    76032, 0xf811e6af
0,         39,         39,        1,    76032, 0x5bb6f541
0,         40,         40,        1,    76032, 0xadfc0b2a
0,         41,         41,        1,    76032, 0x473fea46
0,         42,         42,        1,    76032, 0xc4541cec
0,         43,         43,        1,    76032, 0x5e500726
0,         44,         44,        1,    76032, 0x54df18fa
0,         45,         45,        1,    76032, 0x6470045f
0,         46,         46,        1,    76032, 0x01139a0b
0,         47,         47,        1,    76032, 0x8690ced5
0,         48,         48,        1,    76032, 0x9796b3f0
0,         49,         49,        1,    76032, 0x1bee45e6
0,         50,         50,        1,    76032, 0xacf4c872
0,         51,         51,        1,    76032, 0x0183d0b5
0,         52,         52,        1,    76032, 0xeea54bf9
0,         53,         53,        1,    76032, 0xb42d4abc
0,         54,         54,        1,    76032, 0x8be07d8b
0,         55,         55,        1,    76032, 0x9ac75afc
0,         56,         56,        1,    76032, 0x96bd3717
0,         57,         57,        1,    76032, 0xbcca6d3e
0,         58,         58,        1,    76032, 0x3e2edf44
0,         59,         59,        1,    76032, 0x1b1385bb
0,         60,         60,        1,    76032, 0xd4c2d759
0,         61,         61,        1,    76032, 0x67119362
0,         62,         62,        1,    76032, 0x96327b89
0,         63,         63,        1,    76032, 0x9b914995
0,         64,         64,        1,    76032, 0xf1d024b9
0,         65,         65,        1,    76032, 0xd0e1d7d4
0,         66,         66,        1,    76032, 0x11e97010
0,         67,         67,        1,    76032, 0x0ab90a20
0,         68,         68,        1,    76032, 0xf7ce7e72
0,         69,         69,        1,    76032, 0x6edec4f7
0,         70,         70,        1,    76032, 0xbb96a608
0,         71,         71,        1,    76032, 0x8502eee4
0,         72,         72,        1,    76032, 0xc27994cb
0,         73,         73,        1,    76032, 0x6dbba2d1
0,         74,         74,        1,    76032, 0xe85e04f8
0,         75,         75,        1,    76032, 0x4bbbfcf1
0,         76,         76,        1,    76032, 0x8b5a2465
0,         77,         77,        1,    76032, 0x8a5434e7
0,         78,         78,        1,    76032, 0xc34578d9
0,         79,         79,        1,    76032, 0xc2f0d5f5
0,         80,         80,        1,    76032, 0x90bd2102
0,         81,         81,        1,    76032, 0xafda3823
0,         82,         82,        1,    76032, 0x66972a74
0,         83,         83,        1,    76032, 0xc9d17394
0,         84,         84,        1,    76032, 0x961cdc22
0,         85,         85,        1,    76032, 0x6816e378
0,         86,         86,        1,    76032, 0x4c383925
0,         87,         87,        1,    76032, 0xf522e7b8
0,         88,         88,        1,    76032, 0xc1616f33
0,         89,         89,        1,    76032, 0xad14952f
0,         90,         90,        1,    76032, 0xe4e11fcd
0,         91,         91,        1,    76032, 0xca655ea6
0,         92,         92,        1,    76032, 0x7b18f45f
0,         93,         93,        1,    76032, 0xb2325f91
0,         94,         94,        1,    76032, 0xb08d7400
0,         95,         95,        1,    76032, 0x74ec51c2
0,         96,         96,        1,    76032, 0xc15a0713
0,         97,         97,        1,    76032, 0x3838ad70
0,         98,         98,        1,    76032, 0x74b6bc3f
0,         99,         99,        1,    76032, 0x29f41cab
